<?xml version="1.0" encoding="UTF-8"?>
<svg width="8px" height="14px" viewBox="0 0 8 14" version="1.1" xmlns="http://www.w3.org/2000/svg" xmlns:xlink="http://www.w3.org/1999/xlink">
    <!-- Generator: Sketch 54.1 (76490) - https://sketchapp.com -->
    <title>编组 17</title>
    <desc>Created with Sketch.</desc>
    <g id="Page-1" stroke="none" stroke-width="1" fill="none" fill-rule="evenodd">
        <g id="编组-17" transform="translate(0.281982, 0.451171)" fill="#979797" fill-rule="nonzero">
            <path d="M4.12622119,12.5488292 L4.12622119,0.500001093 C4.12622119,0.223858718 3.90236356,1.0926301e-06 3.62622119,1.0926301e-06 C3.35007881,1.0926301e-06 3.12622119,0.223858718 3.12622119,0.500001093 L3.12622119,12.5488292 C3.12622119,12.8249716 3.35007881,13.0488292 3.62622119,13.0488292 C3.90236356,13.0488292 4.12622119,12.8249716 4.12622119,12.5488292 Z" id="路径-9"></path>
            <path d="M6.76995625,4.10452092 C6.97222423,4.29251633 7.28859522,4.28094613 7.47659063,4.07867815 C7.66458604,3.87641016 7.65301583,3.56003917 7.45074785,3.37204376 L3.96661699,0.133762513 C3.76705405,-0.0517187296 3.45572794,-0.0432858565 3.2664985,0.152726584 L0.140277793,3.39100783 C-0.0515166217,3.58967719 -0.0459433797,3.90621062 0.152725978,4.09800504 C0.351395335,4.28979945 0.667928764,4.28422621 0.859723179,4.08555685 L3.64518867,1.20024532 L6.76995625,4.10452092 Z" id="路径-10"></path>
        </g>
    </g>
</svg>